<svg version="1.1" id="Layer_1" xmlns="http://www.w3.org/2000/svg" xmlns:xlink="http://www.w3.org/1999/xlink" x="0px" y="0px"
	 width="100%" viewBox="0 0 525 352" enable-background="new 0 0 525 352" xml:space="preserve">
<path fill="#FDFDFD" opacity="1.000000" stroke="none" 
	d="
M329.000000,353.000000 
	C219.364410,353.000000 110.228836,353.000000 1.046625,353.000000 
	C1.046625,235.731171 1.046625,118.462326 1.046625,1.096738 
	C175.885635,1.096738 350.771332,1.096738 525.828491,1.096738 
	C525.828491,118.333130 525.828491,235.666550 525.828491,353.000000 
	C460.462189,353.000000 394.981110,353.000000 329.000000,353.000000 
M334.806976,271.377930 
	C353.969086,271.435822 373.131836,271.432678 392.292175,271.648010 
	C394.163239,271.669006 396.607269,272.515594 397.793427,273.856445 
	C414.316833,292.534241 430.624939,311.402496 447.139465,330.088196 
	C448.464508,331.587433 450.921021,332.086731 452.851715,333.050720 
	C453.543762,331.210175 454.822693,329.374023 454.836395,327.528442 
	C454.964081,310.364960 454.868805,293.199860 454.857269,276.035248 
	C454.856323,274.609406 454.994995,273.183502 455.074432,271.648560 
	C463.058228,271.648560 470.555847,271.637238 478.053375,271.650696 
	C498.895569,271.688171 510.224854,260.435699 510.222839,239.635330 
	C510.217834,187.474594 509.894104,135.311172 510.357544,83.154678 
	C510.504761,66.584259 499.894043,51.322319 478.721924,51.518490 
	C418.067535,52.080482 357.404266,51.689098 296.744507,51.667034 
	C290.078766,51.664608 283.381683,51.221909 276.757385,51.735249 
	C271.628143,52.132732 266.589966,53.705524 261.511322,54.755844 
	C261.655396,55.066349 261.799500,55.376850 261.943604,55.687355 
	C267.273102,56.759758 272.602570,57.832161 278.189911,59.411789 
	C278.538361,59.553440 278.886841,59.695087 279.353210,60.494518 
	C286.889526,65.823395 290.256866,73.155373 290.123413,82.321762 
	C290.014404,89.811501 290.294830,97.307632 290.143707,104.795700 
	C290.083527,107.776741 291.211151,109.453552 293.501190,111.364876 
	C302.535034,118.904755 312.207397,125.982300 319.915527,134.749954 
	C341.252472,159.019806 350.081055,187.851761 348.161438,220.068314 
	C347.248474,235.389832 342.869171,249.768097 336.279266,264.127167 
	C335.479279,265.985931 334.679260,267.844696 333.347565,269.997467 
	C333.564453,270.355408 333.781342,270.713379 334.806976,271.377930 
M294.710815,310.758728 
	C285.676849,310.758728 276.642914,310.758728 267.713959,310.758728 
	C274.799438,306.862579 282.170258,303.451172 288.871124,299.025360 
	C354.350769,255.777145 349.788239,156.781433 280.594666,118.969444 
	C277.811554,117.448555 276.900116,115.889565 276.959351,112.847694 
	C277.153931,102.852196 277.087524,92.850815 277.054321,82.851921 
	C277.024231,73.796104 273.040741,69.724197 263.948273,69.679886 
	C238.451065,69.555626 212.953094,69.579468 187.456131,69.425911 
	C179.591431,69.378548 174.205933,72.651329 170.911926,79.878731 
	C167.672180,86.987030 164.156525,93.983070 160.425827,100.845650 
	C159.347565,102.829109 157.193024,105.485703 155.389801,105.600441 
	C147.301285,106.115135 139.161530,105.824577 130.949875,105.824577 
	C130.858368,104.432030 130.762100,103.448967 130.733948,102.463966 
	C130.447479,92.443520 128.016983,90.049980 118.195557,90.048347 
	C109.529747,90.046906 100.857582,90.203018 92.199776,89.927032 
	C81.870445,89.597778 76.620384,89.978981 76.897263,104.689644 
	C76.902435,104.964111 76.618088,105.244026 76.280846,105.870712 
	C72.162399,105.870712 67.863441,105.857391 63.564587,105.873116 
	C48.375626,105.928665 38.501541,115.697472 38.487850,130.826324 
	C38.438835,184.987579 38.408607,239.148865 38.424755,293.310150 
	C38.429359,308.760376 48.397800,318.540497 63.797829,318.526550 
	C135.957230,318.461182 208.116623,318.408600 280.276031,318.370056 
	C308.273376,318.355072 336.270813,318.437988 364.268005,318.377228 
	C375.632599,318.352570 384.431213,313.049194 387.259460,303.434631 
	C388.987457,297.560272 388.861908,291.140656 389.615143,284.561310 
	C386.268585,284.733063 384.119110,284.843414 381.057983,284.733032 
	C362.964355,284.720856 344.870544,284.675415 326.777344,284.757568 
	C325.278656,284.764343 323.415558,285.219666 322.345276,286.169312 
	C313.328583,294.169678 304.457336,302.333923 294.710815,310.758728 
z"/>
<path fill="#0897F0" opacity="1.000000" stroke="none" 
	d="
M336.839172,263.740234 
	C342.869171,249.768097 347.248474,235.389832 348.161438,220.068314 
	C350.081055,187.851761 341.252472,159.019806 319.915527,134.749954 
	C312.207397,125.982300 302.535034,118.904755 293.501190,111.364876 
	C291.211151,109.453552 290.083527,107.776741 290.143707,104.795700 
	C290.294830,97.307632 290.014404,89.811501 290.123413,82.321762 
	C290.256866,73.155373 286.889526,65.823395 279.615417,59.920090 
	C284.030365,59.199669 288.183075,58.928715 292.335876,58.926456 
	C352.832245,58.893566 413.328796,58.957115 473.824829,58.813339 
	C481.261292,58.795670 488.431305,59.091492 495.169983,63.223690 
	C496.254395,64.314148 497.181000,65.137108 498.126282,66.270172 
	C498.698975,67.161316 499.252960,67.742371 499.901367,68.649002 
	C500.250641,69.343620 500.505524,69.712662 500.669495,70.231567 
	C500.627167,70.666809 500.795837,70.796440 501.056458,70.833359 
	C501.028290,70.896385 501.159637,70.938866 501.140381,71.341019 
	C501.745331,75.492073 502.904907,79.239845 502.912933,82.990074 
	C503.022522,134.250443 502.916290,185.511276 503.030975,236.771622 
	C503.046143,243.556702 502.389465,250.006485 498.707336,256.145935 
	C497.645752,257.244965 496.835815,258.166229 495.720764,259.123749 
	C494.849640,259.716736 494.283630,260.273438 493.523132,260.871735 
	C493.328705,260.913300 493.036560,261.183136 492.685181,261.214661 
	C490.232910,262.202362 488.132050,263.158600 485.698608,264.089905 
	C484.932709,264.155762 484.499390,264.246552 483.609436,264.225037 
	C479.078796,264.197235 475.004883,264.281769 470.517853,264.285156 
	C468.426208,264.258698 466.747681,264.313446 464.614990,264.232056 
	C460.838287,264.098633 457.515503,264.078461 454.193176,264.109253 
	C448.523743,264.161743 447.443787,265.133179 447.402283,270.738739 
	C447.301453,284.364014 447.307617,297.990082 447.245117,311.615723 
	C447.237274,313.325531 447.075287,315.034607 446.984741,316.744049 
	C446.459137,317.036682 445.933563,317.329315 445.407959,317.621948 
	C442.599396,314.432587 439.790833,311.243195 436.893127,307.816589 
	C436.536438,307.382660 436.268860,307.185944 435.937469,306.666687 
	C434.666626,305.088898 433.459564,303.833649 432.146423,302.306702 
	C431.371552,301.347656 430.702820,300.660278 429.978149,299.653320 
	C428.999725,298.469269 428.077209,297.604797 427.012146,296.454102 
	C425.557953,294.787140 424.246307,293.406342 422.878357,291.696045 
	C420.549530,288.915558 418.277008,286.464508 416.004272,284.005707 
	C416.004120,283.997925 415.989563,283.993591 415.956451,283.670624 
	C415.011963,282.459320 414.100586,281.570953 413.072845,280.409332 
	C412.284607,279.427521 411.612732,278.718994 410.887451,277.681580 
	C408.964874,275.438477 407.095673,273.524292 405.111206,271.341827 
	C404.326202,270.382660 403.656464,269.691803 402.931152,268.655945 
	C400.994904,265.453247 398.892517,263.039642 394.475189,264.269440 
	C378.033783,264.246460 362.050262,264.301361 345.641785,264.227783 
	C343.455353,264.193726 341.693848,264.288147 339.545837,264.293976 
	C338.385925,264.050354 337.612549,263.895294 336.839172,263.740234 
z"/>
<path fill="#080908" opacity="1.000000" stroke="none" 
	d="
M381.969604,284.953735 
	C384.119110,284.843414 386.268585,284.733063 389.615143,284.561310 
	C388.861908,291.140656 388.987457,297.560272 387.259460,303.434631 
	C384.431213,313.049194 375.632599,318.352570 364.268005,318.377228 
	C336.270813,318.437988 308.273376,318.355072 280.276031,318.370056 
	C208.116623,318.408600 135.957230,318.461182 63.797829,318.526550 
	C48.397800,318.540497 38.429359,308.760376 38.424755,293.310150 
	C38.408607,239.148865 38.438835,184.987579 38.487850,130.826324 
	C38.501541,115.697472 48.375626,105.928665 63.564587,105.873116 
	C67.863441,105.857391 72.162399,105.870712 76.280846,105.870712 
	C76.618088,105.244026 76.902435,104.964111 76.897263,104.689644 
	C76.620384,89.978981 81.870445,89.597778 92.199776,89.927032 
	C100.857582,90.203018 109.529747,90.046906 118.195557,90.048347 
	C128.016983,90.049980 130.447479,92.443520 130.733948,102.463966 
	C130.762100,103.448967 130.858368,104.432030 130.949875,105.824577 
	C139.161530,105.824577 147.301285,106.115135 155.389801,105.600441 
	C157.193024,105.485703 159.347565,102.829109 160.425827,100.845650 
	C164.156525,93.983070 167.672180,86.987030 170.911926,79.878731 
	C174.205933,72.651329 179.591431,69.378548 187.456131,69.425911 
	C212.953094,69.579468 238.451065,69.555626 263.948273,69.679886 
	C273.040741,69.724197 277.024231,73.796104 277.054321,82.851921 
	C277.087524,92.850815 277.153931,102.852196 276.959351,112.847694 
	C276.900116,115.889565 277.811554,117.448555 280.594666,118.969444 
	C349.788239,156.781433 354.350769,255.777145 288.871124,299.025360 
	C282.170258,303.451172 274.799438,306.862579 267.713959,310.758728 
	C276.642914,310.758728 285.676849,310.758728 295.595947,310.787354 
	C319.630768,310.864655 342.780914,311.010925 365.929962,310.910217 
	C374.265198,310.873932 380.009949,305.677826 381.220032,297.379364 
	C381.816620,293.288025 381.741028,289.098724 381.969604,284.953735 
M187.415100,298.632446 
	C191.167389,300.148895 194.919678,301.665314 199.241196,303.653381 
	C201.118134,304.220917 202.995071,304.788422 205.473694,305.772736 
	C207.952652,306.256195 210.431595,306.739655 213.513275,307.654633 
	C215.007233,307.812073 216.501190,307.969513 218.739426,308.498352 
	C223.831039,308.723236 228.922638,308.948120 234.899536,309.243103 
	C237.979584,308.949432 241.059616,308.655762 244.961029,308.313782 
	C248.025726,307.694763 251.090408,307.075745 254.910004,306.321747 
	C257.040405,305.605042 259.170807,304.888367 262.054260,304.153564 
	C274.167023,300.771088 284.515686,294.241699 293.926483,286.114075 
	C314.308899,268.510864 325.842468,246.190262 327.949951,219.422134 
	C330.069519,192.500336 322.435425,168.305389 304.817139,147.688263 
	C292.328461,133.073898 277.055084,122.451019 257.511108,117.336731 
	C244.682373,113.681099 231.697769,112.980698 218.479874,114.816475 
	C187.730118,119.087166 164.591293,135.064224 148.464569,161.087097 
	C135.411591,182.150070 131.220963,205.320999 136.034607,229.677231 
	C142.115005,260.443115 159.286118,283.262115 187.415100,298.632446 
M125.925217,163.169022 
	C128.758026,163.193802 131.616379,162.989883 134.417007,163.302780 
	C137.723694,163.672211 139.644730,162.386871 141.145294,159.513626 
	C146.777756,148.728683 154.659363,139.652481 163.857346,131.869202 
	C188.025894,111.417953 215.830170,102.845680 247.330368,107.794235 
	C254.910049,108.984978 262.321716,111.245323 270.011078,113.061104 
	C270.011078,103.008354 269.865753,93.017151 270.076141,83.033440 
	C270.172485,78.461182 268.367493,76.837646 263.883484,76.857132 
	C238.388016,76.967941 212.891098,77.008392 187.396469,76.823425 
	C182.307571,76.786499 179.304245,78.871407 177.244446,83.231865 
	C173.901810,90.308067 170.275467,97.252098 167.015396,104.364906 
	C164.275085,110.343719 159.986404,113.349426 153.296188,113.037949 
	C148.640350,112.821182 143.966324,112.994659 139.300430,112.994392 
	C113.971222,112.992950 88.641830,112.934578 63.312893,113.017181 
	C52.481537,113.052505 45.908760,119.703316 45.819290,130.501892 
	C45.740601,139.999649 45.790115,149.498627 45.826038,158.996902 
	C45.830849,160.268692 46.088055,161.539536 46.261066,163.106888 
	C49.393559,163.106888 52.197613,163.106888 55.935108,163.196259 
	C78.956444,163.156723 101.977783,163.117188 125.925217,163.169022 
M156.700027,284.792358 
	C126.241066,251.494568 119.787849,213.496323 134.697342,171.208069 
	C105.100975,171.208069 75.714417,171.208069 46.046146,171.208069 
	C45.942677,172.997116 45.785118,174.455017 45.784737,175.912933 
	C45.774620,214.731598 46.071854,253.553696 45.614304,292.366913 
	C45.468803,304.709656 54.117672,311.267975 64.394249,311.180450 
	C106.875229,310.818481 149.360931,311.010437 191.844894,310.998993 
	C192.907303,310.998688 193.969696,310.998962 195.986496,310.998962 
	C188.343842,306.941437 181.320358,303.882263 175.049347,299.695892 
	C168.718994,295.469940 163.134857,290.126190 156.700027,284.792358 
M105.498276,96.963768 
	C100.856567,96.961792 96.214775,96.940460 91.573181,96.962189 
	C83.730179,96.998894 83.176964,97.731667 85.010040,105.664886 
	C97.661247,105.664886 110.337524,105.664886 122.953506,105.664886 
	C124.505821,97.673248 123.974480,96.998428 116.443550,96.991989 
	C113.128036,96.989151 109.812546,96.973122 105.498276,96.963768 
z"/>
<path fill="#08090A" opacity="1.000000" stroke="none" 
	d="
M336.559204,263.933716 
	C337.612549,263.895294 338.385925,264.050354 339.660370,264.619446 
	C342.129852,264.807739 344.098297,264.582001 346.066711,264.356262 
	C362.050262,264.301361 378.033783,264.246460 394.575989,264.589539 
	C397.751984,266.325287 400.369354,267.663116 402.986694,269.000916 
	C403.656464,269.691803 404.326202,270.382660 405.061584,271.709656 
	C407.065063,274.234009 409.002930,276.122253 410.940826,278.010468 
	C411.612732,278.718994 412.284607,279.427521 413.037720,280.769287 
	C414.075836,282.266174 415.032715,283.129883 415.989563,283.993591 
	C415.989563,283.993591 416.004120,283.997925 415.986450,284.368622 
	C418.290771,287.168060 420.612732,289.596802 422.934692,292.025513 
	C424.246307,293.406342 425.557953,294.787140 426.986542,296.812958 
	C428.080353,298.296265 429.057220,299.134583 430.034088,299.972900 
	C430.702820,300.660278 431.371552,301.347656 432.093262,302.675659 
	C433.431244,304.540649 434.716278,305.764923 436.001282,306.989227 
	C436.268860,307.185944 436.536438,307.382660 436.881592,308.176758 
	C440.084534,312.620270 443.209839,316.466339 446.335144,320.312439 
	C446.901855,320.101227 447.468567,319.890015 448.035278,319.678802 
	C448.338959,317.516663 448.891083,315.356262 448.905823,313.192139 
	C448.998596,299.591034 449.167206,285.985046 448.882324,272.389618 
	C448.777466,267.384979 450.297180,265.562317 455.376984,265.839417 
	C458.571472,266.013641 461.835999,264.902649 465.069122,264.368225 
	C466.747681,264.313446 468.426208,264.258698 470.659851,264.639954 
	C475.498688,264.829773 479.782379,264.583557 484.066101,264.337341 
	C484.499390,264.246552 484.932709,264.155762 485.919617,264.337738 
	C488.661011,263.468018 490.848785,262.325592 493.036560,261.183136 
	C493.036560,261.183136 493.328705,260.913300 493.863495,260.907532 
	C494.940796,260.297028 495.483337,259.692261 496.025879,259.087524 
	C496.835815,258.166229 497.645752,257.244965 499.062317,256.106812 
	C501.121735,251.997543 503.624298,248.159180 503.827850,244.202560 
	C504.404846,232.986404 503.929596,221.720337 504.083832,210.476898 
	C504.208862,201.363190 504.856964,192.254272 504.879028,183.142273 
	C504.897705,175.431854 504.097107,167.719330 504.119843,160.009079 
	C504.148346,150.352325 504.931030,140.695526 504.882263,131.041290 
	C504.792572,113.282921 504.432739,95.523468 503.906342,77.772736 
	C503.838013,75.469650 502.115784,73.215614 501.159637,70.938858 
	C501.159637,70.938866 501.028290,70.896385 501.051758,70.699234 
	C501.027771,70.318909 500.922821,70.178780 500.760406,70.081696 
	C500.505524,69.712662 500.250641,69.343620 499.939270,68.307602 
	C499.291046,67.080421 498.699341,66.520233 498.107605,65.960068 
	C497.181000,65.137108 496.254395,64.314148 495.122925,62.876221 
	C490.572845,60.520889 486.234863,57.285210 481.881439,57.264233 
	C415.663971,56.945202 349.444397,57.032555 283.225525,57.127926 
	C281.460205,57.130470 279.696503,58.286461 277.932068,58.904564 
	C272.602570,57.832161 267.273102,56.759758 261.943604,55.687355 
	C261.799500,55.376850 261.655396,55.066349 261.511322,54.755844 
	C266.589966,53.705524 271.628143,52.132732 276.757385,51.735249 
	C283.381683,51.221909 290.078766,51.664608 296.744507,51.667034 
	C357.404266,51.689098 418.067535,52.080482 478.721924,51.518490 
	C499.894043,51.322319 510.504761,66.584259 510.357544,83.154678 
	C509.894104,135.311172 510.217834,187.474594 510.222839,239.635330 
	C510.224854,260.435699 498.895569,271.688171 478.053375,271.650696 
	C470.555847,271.637238 463.058228,271.648560 455.074432,271.648560 
	C454.994995,273.183502 454.856323,274.609406 454.857269,276.035248 
	C454.868805,293.199860 454.964081,310.364960 454.836395,327.528442 
	C454.822693,329.374023 453.543762,331.210175 452.851715,333.050720 
	C450.921021,332.086731 448.464508,331.587433 447.139465,330.088196 
	C430.624939,311.402496 414.316833,292.534241 397.793427,273.856445 
	C396.607269,272.515594 394.163239,271.669006 392.292175,271.648010 
	C373.131836,271.432678 353.969086,271.435822 334.388824,270.881226 
	C333.940186,270.157532 333.909729,269.930511 333.879242,269.703461 
	C334.679260,267.844696 335.479279,265.985931 336.559204,263.933716 
z"/>
<path fill="#606060" opacity="1.000000" stroke="none" 
	d="
M381.513794,284.843384 
	C381.741028,289.098724 381.816620,293.288025 381.220032,297.379364 
	C380.009949,305.677826 374.265198,310.873932 365.929962,310.910217 
	C342.780914,311.010925 319.630768,310.864655 296.011719,310.632416 
	C304.457336,302.333923 313.328583,294.169678 322.345276,286.169312 
	C323.415558,285.219666 325.278656,284.764343 326.777344,284.757568 
	C344.870544,284.675415 362.964355,284.720856 381.513794,284.843384 
z"/>
<path fill="#051F39" opacity="1.000000" stroke="none" 
	d="
M278.060974,59.158173 
	C279.696503,58.286461 281.460205,57.130470 283.225525,57.127926 
	C349.444397,57.032555 415.663971,56.945202 481.881439,57.264233 
	C486.234863,57.285210 490.572845,60.520889 494.965088,62.608734 
	C488.431305,59.091492 481.261292,58.795670 473.824829,58.813339 
	C413.328796,58.957115 352.832245,58.893566 292.335876,58.926456 
	C288.183075,58.928715 284.030365,59.199669 279.556458,59.591198 
	C278.886841,59.695087 278.538361,59.553440 278.060974,59.158173 
z"/>
<path fill="#0E0F10" opacity="1.000000" stroke="none" 
	d="
M333.613403,269.850464 
	C333.909729,269.930511 333.940186,270.157532 333.984436,270.727905 
	C333.781342,270.713379 333.564453,270.355408 333.613403,269.850464 
z"/>
<path fill="#051F39" opacity="1.000000" stroke="none" 
	d="
M501.140381,71.341011 
	C502.115784,73.215614 503.838013,75.469650 503.906342,77.772736 
	C504.432739,95.523468 504.792572,113.282921 504.882263,131.041290 
	C504.931030,140.695526 504.148346,150.352325 504.119843,160.009079 
	C504.097107,167.719330 504.897705,175.431854 504.879028,183.142273 
	C504.856964,192.254272 504.208862,201.363190 504.083832,210.476898 
	C503.929596,221.720337 504.404846,232.986404 503.827850,244.202560 
	C503.624298,248.159180 501.121735,251.997543 499.313934,255.929016 
	C502.389465,250.006485 503.046143,243.556702 503.030975,236.771622 
	C502.916290,185.511276 503.022522,134.250443 502.912933,82.990074 
	C502.904907,79.239845 501.745331,75.492073 501.140381,71.341011 
z"/>
<path fill="#051F39" opacity="1.000000" stroke="none" 
	d="
M464.614990,264.232056 
	C461.835999,264.902649 458.571472,266.013641 455.376984,265.839417 
	C450.297180,265.562317 448.777466,267.384979 448.882324,272.389618 
	C449.167206,285.985046 448.998596,299.591034 448.905823,313.192139 
	C448.891083,315.356262 448.338959,317.516663 448.035278,319.678802 
	C447.468567,319.890015 446.901855,320.101227 446.335144,320.312439 
	C443.209839,316.466339 440.084534,312.620270 436.970734,308.414001 
	C439.790833,311.243195 442.599396,314.432587 445.407959,317.621948 
	C445.933563,317.329315 446.459137,317.036682 446.984741,316.744049 
	C447.075287,315.034607 447.237274,313.325531 447.245117,311.615723 
	C447.307617,297.990082 447.301453,284.364014 447.402283,270.738739 
	C447.443787,265.133179 448.523743,264.161743 454.193176,264.109253 
	C457.515503,264.078461 460.838287,264.098633 464.614990,264.232056 
z"/>
<path fill="#051F39" opacity="1.000000" stroke="none" 
	d="
M483.609436,264.225006 
	C479.782379,264.583557 475.498688,264.829773 471.072937,264.721161 
	C475.004883,264.281769 479.078796,264.197235 483.609436,264.225006 
z"/>
<path fill="#051F39" opacity="1.000000" stroke="none" 
	d="
M422.878357,291.696045 
	C420.612732,289.596802 418.290771,287.168060 415.986633,284.376404 
	C418.277008,286.464508 420.549530,288.915558 422.878357,291.696045 
z"/>
<path fill="#051F39" opacity="1.000000" stroke="none" 
	d="
M402.931152,268.655945 
	C400.369354,267.663116 397.751984,266.325287 395.033844,264.667389 
	C398.892517,263.039642 400.994904,265.453247 402.931152,268.655945 
z"/>
<path fill="#051F39" opacity="1.000000" stroke="none" 
	d="
M410.887451,277.681580 
	C409.002930,276.122253 407.065063,274.234009 405.176819,271.977966 
	C407.095673,273.524292 408.964874,275.438477 410.887451,277.681580 
z"/>
<path fill="#051F39" opacity="1.000000" stroke="none" 
	d="
M492.685181,261.214661 
	C490.848785,262.325592 488.661011,263.468018 486.252197,264.362640 
	C488.132050,263.158600 490.232910,262.202362 492.685181,261.214661 
z"/>
<path fill="#051F39" opacity="1.000000" stroke="none" 
	d="
M345.641785,264.227783 
	C344.098297,264.582001 342.129852,264.807739 340.046906,264.708008 
	C341.693848,264.288147 343.455353,264.193726 345.641785,264.227783 
z"/>
<path fill="#051F39" opacity="1.000000" stroke="none" 
	d="
M435.937469,306.666687 
	C434.716278,305.764923 433.431244,304.540649 432.199402,302.947388 
	C433.459564,303.833649 434.666626,305.088898 435.937469,306.666687 
z"/>
<path fill="#051F39" opacity="1.000000" stroke="none" 
	d="
M415.956451,283.670624 
	C415.032715,283.129883 414.075836,282.266174 413.154083,281.042542 
	C414.100586,281.570953 415.011963,282.459320 415.956451,283.670624 
z"/>
<path fill="#051F39" opacity="1.000000" stroke="none" 
	d="
M429.978149,299.653320 
	C429.057220,299.134583 428.080353,298.296265 427.129089,297.099121 
	C428.077209,297.604797 428.999725,298.469269 429.978149,299.653320 
z"/>
<path fill="#051F39" opacity="1.000000" stroke="none" 
	d="
M498.126282,66.270157 
	C498.699341,66.520233 499.291046,67.080421 499.844849,67.982018 
	C499.252960,67.742371 498.698975,67.161316 498.126282,66.270157 
z"/>
<path fill="#051F39" opacity="1.000000" stroke="none" 
	d="
M495.720764,259.123779 
	C495.483337,259.692261 494.940796,260.297028 494.057922,260.865967 
	C494.283630,260.273438 494.849640,259.716736 495.720764,259.123779 
z"/>
<path fill="#051F39" opacity="1.000000" stroke="none" 
	d="
M500.669495,70.231567 
	C500.922821,70.178780 501.027771,70.318909 501.079926,70.636208 
	C500.795837,70.796440 500.627167,70.666809 500.669495,70.231567 
z"/>
<path fill="#606060" opacity="1.000000" stroke="none" 
	d="
M156.961914,285.032227 
	C163.134857,290.126190 168.718994,295.469940 175.049347,299.695892 
	C181.320358,303.882263 188.343842,306.941437 195.986496,310.998962 
	C193.969696,310.998962 192.907303,310.998688 191.844894,310.998993 
	C149.360931,311.010437 106.875229,310.818481 64.394249,311.180450 
	C54.117672,311.267975 45.468803,304.709656 45.614304,292.366913 
	C46.071854,253.553696 45.774620,214.731598 45.784737,175.912933 
	C45.785118,174.455017 45.942677,172.997116 46.046146,171.208069 
	C75.714417,171.208069 105.100975,171.208069 134.697342,171.208069 
	C119.787849,213.496323 126.241066,251.494568 156.961914,285.032227 
z"/>
<path fill="#5E5E5E" opacity="1.000000" stroke="none" 
	d="
M55.001671,163.106888 
	C52.197613,163.106888 49.393559,163.106888 46.261066,163.106888 
	C46.088055,161.539536 45.830849,160.268692 45.826038,158.996902 
	C45.790115,149.498627 45.740601,139.999649 45.819290,130.501892 
	C45.908760,119.703316 52.481537,113.052505 63.312893,113.017181 
	C88.641830,112.934578 113.971222,112.992950 139.300430,112.994392 
	C143.966324,112.994659 148.640350,112.821182 153.296188,113.037949 
	C159.986404,113.349426 164.275085,110.343719 167.015396,104.364906 
	C170.275467,97.252098 173.901810,90.308067 177.244446,83.231865 
	C179.304245,78.871407 182.307571,76.786499 187.396469,76.823425 
	C212.891098,77.008392 238.388016,76.967941 263.883484,76.857132 
	C268.367493,76.837646 270.172485,78.461182 270.076141,83.033440 
	C269.865753,93.017151 270.011078,103.008354 270.011078,113.061104 
	C262.321716,111.245323 254.910049,108.984978 247.330368,107.794235 
	C215.830170,102.845680 188.025894,111.417953 163.857346,131.869202 
	C154.659363,139.652481 146.777756,148.728683 141.145294,159.513626 
	C139.644730,162.386871 137.723694,163.672211 134.417007,163.302780 
	C131.616379,162.989883 128.758026,163.193802 125.458344,162.745224 
	C123.999046,159.900452 123.006615,157.479477 122.174622,154.677643 
	C122.754662,148.392471 123.487251,142.487518 123.474693,136.584152 
	C123.467339,133.128021 121.355659,130.840134 117.350250,130.866394 
	C102.913246,130.961044 88.475410,130.919937 74.038040,130.973114 
	C70.209114,130.987213 68.231316,133.160782 68.073624,136.847153 
	C67.910629,140.657455 68.181297,144.488846 67.959534,148.293381 
	C67.753899,151.821091 68.907021,154.434509 71.932648,156.542633 
	C69.687599,157.611679 67.115067,159.379349 65.409096,158.760025 
	C62.454086,157.687256 60.035912,155.135727 56.545452,152.585495 
	C56.054531,155.931290 55.528099,159.519089 55.001671,163.106888 
z"/>
<path fill="#606060" opacity="1.000000" stroke="none" 
	d="
M234.014252,309.173004 
	C228.922638,308.948120 223.831039,308.723236 218.361298,307.926208 
	C216.397385,303.238617 214.665146,304.797607 212.910553,307.223145 
	C210.431595,306.739655 207.952652,306.256195 205.183105,305.168304 
	C203.612762,300.530701 201.078339,302.144348 198.671967,303.181763 
	C194.919678,301.665314 191.167389,300.148895 187.199875,297.972595 
	C188.343948,294.461212 189.703247,291.609680 191.425262,288.833740 
	C200.525635,291.903351 209.263260,294.897369 218.034821,298.267822 
	C219.359573,300.078247 220.977737,302.878906 221.873703,302.664337 
	C223.793686,302.204437 225.340652,300.187134 227.496887,298.779785 
	C235.622589,298.113403 243.291748,297.474854 251.008667,297.215027 
	C251.923798,298.336792 252.791214,299.079803 253.658630,299.822845 
	C254.070160,298.453979 254.481689,297.085114 255.182465,295.507690 
	C278.235168,287.878235 295.494446,273.967560 307.224060,252.865738 
	C323.668823,223.281235 320.077850,182.589127 298.509705,156.822250 
	C286.518555,142.496704 271.663788,132.760437 253.969635,126.742279 
	C252.929047,122.322540 255.714890,120.171349 258.074005,117.814857 
	C277.055084,122.451019 292.328461,133.073898 304.817139,147.688263 
	C322.435425,168.305389 330.069519,192.500336 327.949951,219.422134 
	C325.842468,246.190262 314.308899,268.510864 293.926483,286.114075 
	C284.515686,294.241699 274.167023,300.771088 261.336700,303.995850 
	C256.428162,301.209930 255.496109,301.587494 254.155106,306.456757 
	C251.090408,307.075745 248.025726,307.694763 244.399841,307.965027 
	C242.282074,303.165192 238.745071,303.372711 235.398651,304.582031 
	C234.501343,304.906311 234.452560,307.578613 234.014252,309.173004 
z"/>
<path fill="#5F5F5E" opacity="1.000000" stroke="none" 
	d="
M257.792542,117.575790 
	C255.714890,120.171349 252.929047,122.322540 253.558960,126.724152 
	C244.902969,126.162315 236.639694,124.188469 228.442505,124.432686 
	C208.901062,125.014885 191.591995,132.105774 176.321213,144.469070 
	C145.925858,169.077301 136.148331,215.262589 153.958008,250.018860 
	C162.505646,266.699890 175.131577,279.258026 191.062561,288.758148 
	C189.703247,291.609680 188.343948,294.461212 186.970154,297.715454 
	C159.286118,283.262115 142.115005,260.443115 136.034607,229.677231 
	C131.220963,205.320999 135.411591,182.150070 148.464569,161.087097 
	C164.591293,135.064224 187.730118,119.087166 218.479874,114.816475 
	C231.697769,112.980698 244.682373,113.681099 257.792542,117.575790 
z"/>
<path fill="#5E5E5D" opacity="1.000000" stroke="none" 
	d="
M122.014191,155.058502 
	C123.006615,157.479477 123.999046,159.900452 124.995300,162.699539 
	C101.977783,163.117188 78.956444,163.156723 55.468391,163.151581 
	C55.528099,159.519089 56.054531,155.931290 56.545452,152.585495 
	C60.035912,155.135727 62.454086,157.687256 65.409096,158.760025 
	C67.115067,159.379349 69.687599,157.611679 72.400398,156.503281 
	C87.029945,156.093323 101.129494,156.144592 115.228165,156.056656 
	C117.492157,156.042542 119.752274,155.406845 122.014191,155.058502 
z"/>
<path fill="#959594" opacity="1.000000" stroke="none" 
	d="
M105.997658,96.963425 
	C109.812546,96.973122 113.128036,96.989151 116.443550,96.991989 
	C123.974480,96.998428 124.505821,97.673248 122.953506,105.664886 
	C110.337524,105.664886 97.661247,105.664886 85.010040,105.664886 
	C83.176964,97.731667 83.730179,96.998894 91.573181,96.962189 
	C96.214775,96.940460 100.856567,96.961792 105.997658,96.963425 
z"/>
<path fill="#5F5F5E" opacity="1.000000" stroke="none" 
	d="
M234.456894,309.208069 
	C234.452560,307.578613 234.501343,304.906311 235.398651,304.582031 
	C238.745071,303.372711 242.282074,303.165192 243.989151,307.989197 
	C241.059616,308.655762 237.979584,308.949432 234.456894,309.208069 
z"/>
<path fill="#5F5F5E" opacity="1.000000" stroke="none" 
	d="
M254.532562,306.389252 
	C255.496109,301.587494 256.428162,301.209930 260.960175,304.004944 
	C259.170807,304.888367 257.040405,305.605042 254.532562,306.389252 
z"/>
<path fill="#5F5F5E" opacity="1.000000" stroke="none" 
	d="
M213.211914,307.438904 
	C214.665146,304.797607 216.397385,303.238617 217.989166,307.740509 
	C216.501190,307.969513 215.007233,307.812073 213.211914,307.438904 
z"/>
<path fill="#5F5F5E" opacity="1.000000" stroke="none" 
	d="
M198.956573,303.417572 
	C201.078339,302.144348 203.612762,300.530701 204.882263,304.959900 
	C202.995071,304.788422 201.118134,304.220917 198.956573,303.417572 
z"/>
<path fill="#080808" opacity="1.000000" stroke="none" 
	d="
M122.174622,154.677628 
	C119.752274,155.406845 117.492157,156.042542 115.228165,156.056656 
	C101.129494,156.144592 87.029945,156.093323 72.462936,156.127563 
	C68.907021,154.434509 67.753899,151.821091 67.959534,148.293381 
	C68.181297,144.488846 67.910629,140.657455 68.073624,136.847153 
	C68.231316,133.160782 70.209114,130.987213 74.038040,130.973114 
	C88.475410,130.919937 102.913246,130.961044 117.350250,130.866394 
	C121.355659,130.840134 123.467339,133.128021 123.474693,136.584152 
	C123.487251,142.487518 122.754662,148.392471 122.174622,154.677628 
M108.454796,137.943329 
	C97.531929,137.943329 86.609062,137.943329 75.600479,137.943329 
	C75.600479,141.912277 75.600479,145.314407 75.600479,148.659500 
	C89.300636,148.659500 102.674217,148.659500 115.997917,148.659500 
	C115.997917,144.975281 115.997917,141.691635 115.997917,138.502808 
	C115.506081,138.265335 115.223473,138.015747 114.934059,138.007599 
	C113.104652,137.956024 111.273743,137.957993 108.454796,137.943329 
z"/>
<path fill="#080807" opacity="1.000000" stroke="none" 
	d="
M191.425278,288.833740 
	C175.131577,279.258026 162.505646,266.699890 153.958008,250.018860 
	C136.148331,215.262589 145.925858,169.077301 176.321213,144.469070 
	C191.591995,132.105774 208.901062,125.014885 228.442505,124.432686 
	C236.639694,124.188469 244.902969,126.162315 253.546875,127.145905 
	C271.663788,132.760437 286.518555,142.496704 298.509705,156.822250 
	C320.077850,182.589127 323.668823,223.281235 307.224060,252.865738 
	C295.494446,273.967560 278.235168,287.878235 254.834000,295.553406 
	C253.117859,296.150574 252.039383,296.493439 250.960922,296.836304 
	C243.291748,297.474854 235.622589,298.113403 227.161850,298.570984 
	C223.580490,298.223785 220.790680,298.057587 218.000885,297.891388 
	C209.263260,294.897369 200.525635,291.903351 191.425278,288.833740 
M155.115585,197.293167 
	C162.344131,192.534988 169.480881,187.629700 176.820847,183.050095 
	C190.878571,174.279144 203.831863,163.407303 220.979263,159.642471 
	C219.225677,158.740372 217.849564,157.764389 216.318039,157.288040 
	C206.314163,154.176620 196.300262,151.089828 186.220627,148.239014 
	C184.939194,147.876617 182.901917,148.501953 181.813095,149.397278 
	C166.726807,161.802414 157.063202,177.453674 153.501816,197.087341 
	C153.818130,197.217438 154.134460,197.347534 155.115585,197.293167 
M265.117828,170.483368 
	C265.304565,170.455521 265.491272,170.427673 265.678009,170.399826 
	C265.651276,170.278687 265.636292,170.057861 265.595825,170.053085 
	C265.383759,170.028076 265.165192,170.057785 265.332123,169.338120 
	C261.161438,158.315933 257.081818,147.257263 252.698196,136.320419 
	C252.183487,135.036270 250.112045,133.957504 248.565491,133.571075 
	C234.991074,130.179276 221.479782,130.999008 208.229309,135.136566 
	C202.909149,136.797836 197.884369,139.405090 191.981400,141.895569 
	C217.160568,151.738846 243.307098,155.030838 265.117828,170.483368 
M191.387161,189.968124 
	C182.152008,207.158920 184.083084,223.778046 195.175339,239.115677 
	C211.794724,262.095856 245.705505,263.693329 265.093109,243.008591 
	C282.733215,224.188248 280.806152,195.143280 263.028168,178.321472 
	C241.590637,158.036972 205.789230,163.307602 191.387161,189.968124 
M273.480347,243.941818 
	C270.029083,247.776840 266.577789,251.611862 263.323242,255.228256 
	C274.715698,253.753372 286.748413,252.299240 298.729492,250.500824 
	C300.082001,250.297806 301.728638,248.355042 302.240906,246.873871 
	C304.890564,239.212402 307.850372,231.571259 309.500885,223.672058 
	C311.822113,212.562973 310.749146,201.384293 307.904968,190.255157 
	C296.439056,208.188995 285.186005,225.789948 273.480347,243.941818 
M220.998505,267.493744 
	C227.371628,273.811249 233.966507,279.925476 240.023788,286.532532 
	C243.028397,289.809845 245.761154,290.899048 249.922714,289.224121 
	C253.981155,287.590729 258.382812,286.781097 262.380615,285.031403 
	C275.521515,279.280090 286.532135,270.803162 295.151001,258.667725 
	C268.916260,260.121399 243.649414,268.543335 217.537933,262.897888 
	C217.639145,263.481750 217.585907,263.893921 217.767059,264.097748 
	C218.647903,265.088684 219.591476,266.023865 220.998505,267.493744 
M275.258423,175.191269 
	C280.113342,187.343033 284.581207,199.591324 284.282104,214.036270 
	C285.520782,212.445602 286.163879,211.779099 286.624298,211.004089 
	C291.797791,202.295868 296.796722,193.479248 302.170776,184.897293 
	C304.219513,181.625580 304.060699,178.959579 302.312653,175.733383 
	C293.589722,159.634399 281.369446,147.151962 264.883789,138.999054 
	C263.977478,138.550842 262.924896,138.398331 261.325867,137.927063 
	C266.064697,150.579834 270.535309,162.516495 275.258423,175.191269 
M163.689911,200.184906 
	C161.071396,201.952393 158.615280,204.063644 155.791870,205.397369 
	C152.517929,206.943924 151.532852,209.193039 152.009109,212.523743 
	C152.901260,218.763168 153.286484,225.113739 154.688431,231.233475 
	C157.503647,243.522522 163.440063,254.308426 172.103821,264.501709 
	C176.111343,238.287231 174.487198,212.024139 184.624374,186.192459 
	C176.983978,191.319046 170.647934,195.570419 163.689911,200.184906 
M211.520340,267.979797 
	C201.189484,257.118073 190.053726,246.928162 182.762497,233.300858 
	C181.222885,245.484146 180.115509,257.484131 179.281448,269.503082 
	C179.194077,270.762024 180.424973,272.506836 181.544937,273.394501 
	C193.513474,282.880798 207.066772,288.821838 222.229904,290.852295 
	C225.985062,291.355103 229.818069,291.276367 234.998596,291.533691 
	C226.519623,283.037109 219.262939,275.765381 211.520340,267.979797 
z"/>
<path fill="#5F5F5E" opacity="1.000000" stroke="none" 
	d="
M218.034821,298.267822 
	C220.790680,298.057587 223.580490,298.223785 226.705322,298.598785 
	C225.340652,300.187134 223.793686,302.204437 221.873703,302.664337 
	C220.977737,302.878906 219.359573,300.078247 218.034821,298.267822 
z"/>
<path fill="#5F5F5E" opacity="1.000000" stroke="none" 
	d="
M251.008667,297.215027 
	C252.039383,296.493439 253.117859,296.150574 254.544769,295.761963 
	C254.481689,297.085114 254.070160,298.453979 253.658630,299.822845 
	C252.791214,299.079803 251.923798,298.336792 251.008667,297.215027 
z"/>
<path fill="#D3D3D3" opacity="1.000000" stroke="none" 
	d="
M108.949066,137.942810 
	C111.273743,137.957993 113.104652,137.956024 114.934059,138.007599 
	C115.223473,138.015747 115.506081,138.265335 115.997917,138.502808 
	C115.997917,141.691635 115.997917,144.975281 115.997917,148.659500 
	C102.674217,148.659500 89.300636,148.659500 75.600479,148.659500 
	C75.600479,145.314407 75.600479,141.912277 75.600479,137.943329 
	C86.609062,137.943329 97.531929,137.943329 108.949066,137.942810 
z"/>
<path fill="#313131" opacity="1.000000" stroke="none" 
	d="
M191.588394,189.656799 
	C205.789230,163.307602 241.590637,158.036972 263.028168,178.321472 
	C280.806152,195.143280 282.733215,224.188248 265.093109,243.008591 
	C245.705505,263.693329 211.794724,262.095856 195.175339,239.115677 
	C184.083084,223.778046 182.152008,207.158920 191.588394,189.656799 
M221.097382,181.297241 
	C218.767426,181.272598 215.629929,180.267471 214.253738,181.400894 
	C209.475418,185.336349 205.114120,189.841278 200.988480,194.480240 
	C198.822723,196.915466 199.277161,199.976456 202.194443,201.780609 
	C205.231476,203.658798 207.233032,201.810806 209.339233,199.451874 
	C212.580322,195.821838 216.115036,192.390945 219.885452,189.317551 
	C222.648544,187.065262 223.991318,185.030762 221.097382,181.297241 
M261.311066,230.702576 
	C260.508942,228.458557 260.355072,225.276489 258.762665,224.175995 
	C255.907135,222.202591 253.873108,224.745712 251.908066,227.069611 
	C249.604355,229.793961 246.923615,232.352325 243.969513,234.330185 
	C241.103043,236.249390 239.175842,238.237289 240.922424,241.576004 
	C242.845306,245.251724 246.323624,245.072906 248.972855,242.914444 
	C253.270660,239.412827 257.044342,235.267929 261.311066,230.702576 
z"/>
<path fill="#A1A1A1" opacity="1.000000" stroke="none" 
	d="
M273.706635,243.666367 
	C285.186005,225.789948 296.439056,208.188995 307.904968,190.255157 
	C310.749146,201.384293 311.822113,212.562973 309.500885,223.672058 
	C307.850372,231.571259 304.890564,239.212402 302.240906,246.873871 
	C301.728638,248.355042 300.082001,250.297806 298.729492,250.500824 
	C286.748413,252.299240 274.715698,253.753372 263.323242,255.228256 
	C266.577789,251.611862 270.029083,247.776840 273.706635,243.666367 
z"/>
<path fill="#A0A0A0" opacity="1.000000" stroke="none" 
	d="
M265.017303,169.978958 
	C243.307098,155.030838 217.160568,151.738846 191.981400,141.895569 
	C197.884369,139.405090 202.909149,136.797836 208.229309,135.136566 
	C221.479782,130.999008 234.991074,130.179276 248.565491,133.571075 
	C250.112045,133.957504 252.183487,135.036270 252.698196,136.320419 
	C257.081818,147.257263 261.161438,158.315933 265.156860,169.680328 
	C264.981567,170.022537 265.017303,169.978958 265.017303,169.978958 
z"/>
<path fill="#A1A2A1" opacity="1.000000" stroke="none" 
	d="
M220.755676,267.236267 
	C219.591476,266.023865 218.647903,265.088684 217.767059,264.097748 
	C217.585907,263.893921 217.639145,263.481750 217.537933,262.897888 
	C243.649414,268.543335 268.916260,260.121399 295.151001,258.667725 
	C286.532135,270.803162 275.521515,279.280090 262.380615,285.031403 
	C258.382812,286.781097 253.981155,287.590729 249.922714,289.224121 
	C245.761154,290.899048 243.028397,289.809845 240.023788,286.532532 
	C233.966507,279.925476 227.371628,273.811249 220.755676,267.236267 
z"/>
<path fill="#A1A1A0" opacity="1.000000" stroke="none" 
	d="
M275.132202,174.822205 
	C270.535309,162.516495 266.064697,150.579834 261.325867,137.927063 
	C262.924896,138.398331 263.977478,138.550842 264.883789,138.999054 
	C281.369446,147.151962 293.589722,159.634399 302.312653,175.733383 
	C304.060699,178.959579 304.219513,181.625580 302.170776,184.897293 
	C296.796722,193.479248 291.797791,202.295868 286.624298,211.004089 
	C286.163879,211.779099 285.520782,212.445602 284.282104,214.036270 
	C284.581207,199.591324 280.113342,187.343033 275.132202,174.822205 
z"/>
<path fill="#A2A2A2" opacity="1.000000" stroke="none" 
	d="
M164.000900,200.003357 
	C170.647934,195.570419 176.983978,191.319046 184.624374,186.192459 
	C174.487198,212.024139 176.111343,238.287231 172.103821,264.501709 
	C163.440063,254.308426 157.503647,243.522522 154.688431,231.233475 
	C153.286484,225.113739 152.901260,218.763168 152.009109,212.523743 
	C151.532852,209.193039 152.517929,206.943924 155.791870,205.397369 
	C158.615280,204.063644 161.071396,201.952393 164.000900,200.003357 
z"/>
<path fill="#9F9F9E" opacity="1.000000" stroke="none" 
	d="
M153.871719,196.884521 
	C157.063202,177.453674 166.726807,161.802414 181.813095,149.397278 
	C182.901917,148.501953 184.939194,147.876617 186.220627,148.239014 
	C196.300262,151.089828 206.314163,154.176620 216.318039,157.288040 
	C217.849564,157.764389 219.225677,158.740372 220.979263,159.642471 
	C203.831863,163.407303 190.878571,174.279144 176.820847,183.050095 
	C169.480881,187.629700 162.344131,192.534988 154.642517,197.233124 
	C154.169434,197.173080 153.871719,196.884521 153.871719,196.884521 
z"/>
<path fill="#A2A2A2" opacity="1.000000" stroke="none" 
	d="
M211.763306,268.236725 
	C219.262939,275.765381 226.519623,283.037109 234.998596,291.533691 
	C229.818069,291.276367 225.985062,291.355103 222.229904,290.852295 
	C207.066772,288.821838 193.513474,282.880798 181.544937,273.394501 
	C180.424973,272.506836 179.194077,270.762024 179.281448,269.503082 
	C180.115509,257.484131 181.222885,245.484146 182.762497,233.300858 
	C190.053726,246.928162 201.189484,257.118073 211.763306,268.236725 
z"/>
<path fill="#A0A0A0" opacity="1.000000" stroke="none" 
	d="
M264.965210,170.045502 
	C265.165192,170.057785 265.383759,170.028076 265.595825,170.053085 
	C265.636292,170.057861 265.651276,170.278687 265.678009,170.399826 
	C265.491272,170.427673 265.304565,170.455521 265.067566,170.231171 
	C265.017303,169.978958 264.981567,170.022537 264.965210,170.045502 
z"/>
<path fill="#9F9F9E" opacity="1.000000" stroke="none" 
	d="
M154.310104,197.325348 
	C154.134460,197.347534 153.818130,197.217438 153.686768,196.985931 
	C153.871719,196.884521 154.169434,197.173080 154.310104,197.325348 
z"/>
<path fill="#F5F5F5" opacity="1.000000" stroke="none" 
	d="
M221.370285,181.566650 
	C223.991318,185.030762 222.648544,187.065262 219.885452,189.317551 
	C216.115036,192.390945 212.580322,195.821838 209.339233,199.451874 
	C207.233032,201.810806 205.231476,203.658798 202.194443,201.780609 
	C199.277161,199.976456 198.822723,196.915466 200.988480,194.480240 
	C205.114120,189.841278 209.475418,185.336349 214.253738,181.400894 
	C215.629929,180.267471 218.767426,181.272598 221.370285,181.566650 
z"/>
<path fill="#F6F6F6" opacity="1.000000" stroke="none" 
	d="
M261.175171,231.048584 
	C257.044342,235.267929 253.270660,239.412827 248.972855,242.914444 
	C246.323624,245.072906 242.845306,245.251724 240.922424,241.576004 
	C239.175842,238.237289 241.103043,236.249390 243.969513,234.330185 
	C246.923615,232.352325 249.604355,229.793961 251.908066,227.069611 
	C253.873108,224.745712 255.907135,222.202591 258.762665,224.175995 
	C260.355072,225.276489 260.508942,228.458557 261.175171,231.048584 
z"/>
</svg>